<svg width="24" height="24" viewBox="0 0 24 24" fill="none" xmlns="http://www.w3.org/2000/svg">
<circle cx="12" cy="12" r="6" fill="url(#paint0_linear_38_3147)"/>
<g filter="url(#filter0_bi_38_3147)">
<mask id="path-3-inside-1_38_3147" fill="white">
<path fill-rule="evenodd" clip-rule="evenodd" d="M5 4C3.89543 4 3 4.89543 3 6V9C3 10.1046 3.89543 11 5 11H19C20.1046 11 21 10.1046 21 9V6C21 4.89543 20.1046 4 19 4H5ZM5 13C3.89543 13 3 13.8954 3 15V18C3 19.1046 3.89543 20 5 20H19C20.1046 20 21 19.1046 21 18V15C21 13.8954 20.1046 13 19 13H5Z"/>
</mask>
<path fill-rule="evenodd" clip-rule="evenodd" d="M5 4C3.89543 4 3 4.89543 3 6V9C3 10.1046 3.89543 11 5 11H19C20.1046 11 21 10.1046 21 9V6C21 4.89543 20.1046 4 19 4H5ZM5 13C3.89543 13 3 13.8954 3 15V18C3 19.1046 3.89543 20 5 20H19C20.1046 20 21 19.1046 21 18V15C21 13.8954 20.1046 13 19 13H5Z" fill="#1D1D1D" fill-opacity="0.05"/>
<path fill-rule="evenodd" clip-rule="evenodd" d="M5 4C3.89543 4 3 4.89543 3 6V9C3 10.1046 3.89543 11 5 11H19C20.1046 11 21 10.1046 21 9V6C21 4.89543 20.1046 4 19 4H5ZM5 13C3.89543 13 3 13.8954 3 15V18C3 19.1046 3.89543 20 5 20H19C20.1046 20 21 19.1046 21 18V15C21 13.8954 20.1046 13 19 13H5Z" fill="url(#paint1_linear_38_3147)" fill-opacity="0.2"/>
<path d="M3.2 6C3.2 5.00589 4.00589 4.2 5 4.2V3.8C3.78497 3.8 2.8 4.78497 2.8 6H3.2ZM3.2 9V6H2.8V9H3.2ZM5 10.8C4.00589 10.8 3.2 9.99411 3.2 9H2.8C2.8 10.215 3.78497 11.2 5 11.2V10.8ZM19 10.8H5V11.2H19V10.8ZM20.8 9C20.8 9.99411 19.9941 10.8 19 10.8V11.2C20.215 11.2 21.2 10.215 21.2 9H20.8ZM20.8 6V9H21.2V6H20.8ZM19 4.2C19.9941 4.2 20.8 5.00589 20.8 6H21.2C21.2 4.78497 20.215 3.8 19 3.8V4.2ZM5 4.2H19V3.8H5V4.2ZM3.2 15C3.2 14.0059 4.00589 13.2 5 13.2V12.8C3.78497 12.8 2.8 13.785 2.8 15H3.2ZM3.2 18V15H2.8V18H3.2ZM5 19.8C4.00589 19.8 3.2 18.9941 3.2 18H2.8C2.8 19.215 3.78497 20.2 5 20.2V19.8ZM19 19.8H5V20.2H19V19.8ZM20.8 18C20.8 18.9941 19.9941 19.8 19 19.8V20.2C20.215 20.2 21.2 19.215 21.2 18H20.8ZM20.8 15V18H21.2V15H20.8ZM19 13.2C19.9941 13.2 20.8 14.0059 20.8 15H21.2C21.2 13.785 20.215 12.8 19 12.8V13.2ZM5 13.2H19V12.8H5V13.2Z" fill="url(#paint2_linear_38_3147)" fill-opacity="0.1" mask="url(#path-3-inside-1_38_3147)"/>
</g>
<defs>
<filter id="filter0_bi_38_3147" x="0" y="1" width="24" height="22" filterUnits="userSpaceOnUse" color-interpolation-filters="sRGB">
<feFlood flood-opacity="0" result="BackgroundImageFix"/>
<feGaussianBlur in="BackgroundImage" stdDeviation="1.5"/>
<feComposite in2="SourceAlpha" operator="in" result="effect1_backgroundBlur_38_3147"/>
<feBlend mode="normal" in="SourceGraphic" in2="effect1_backgroundBlur_38_3147" result="shape"/>
<feColorMatrix in="SourceAlpha" type="matrix" values="0 0 0 0 0 0 0 0 0 0 0 0 0 0 0 0 0 0 127 0" result="hardAlpha"/>
<feOffset dy="0.5"/>
<feGaussianBlur stdDeviation="1"/>
<feComposite in2="hardAlpha" operator="arithmetic" k2="-1" k3="1"/>
<feColorMatrix type="matrix" values="0 0 0 0 1 0 0 0 0 1 0 0 0 0 1 0 0 0 0.15 0"/>
<feBlend mode="normal" in2="shape" result="effect2_innerShadow_38_3147"/>
</filter>
<linearGradient id="paint0_linear_38_3147" x1="6.5" y1="8.4" x2="19.581" y2="10.2168" gradientUnits="userSpaceOnUse">
<stop stop-color="#FE82DB"/>
<stop offset="1" stop-color="#68E4FF"/>
</linearGradient>
<linearGradient id="paint1_linear_38_3147" x1="3.75" y1="7.2" x2="23.2734" y2="10.2505" gradientUnits="userSpaceOnUse">
<stop stop-color="#FE82DB"/>
<stop offset="1" stop-color="#68E4FF"/>
</linearGradient>
<linearGradient id="paint2_linear_38_3147" x1="3.5625" y1="4.72727" x2="21" y2="4.72727" gradientUnits="userSpaceOnUse">
<stop stop-color="#FD84DC"/>
<stop offset="1" stop-color="#7FD6FA"/>
</linearGradient>
</defs>
</svg>
