<svg width="120" height="120" viewBox="0 0 120 120" fill="none" xmlns="http://www.w3.org/2000/svg">
<path fill-rule="evenodd" clip-rule="evenodd" d="M60.7308 36.8387L61.3391 37.0017C69.3339 39.1438 74.0319 47.5645 71.8356 55.7612L67.443 72.1546C65.2467 80.3513 56.9757 85.2651 48.981 83.1229L21.5209 75.765C13.5262 73.6228 8.82019 65.2318 11.0165 57.0351L15.4091 40.6418C17.6054 32.4451 25.8843 27.5016 33.879 29.6437L34.4873 29.8067C35.5002 26.2585 37.7528 23.2971 40.8834 21.4622C44.0509 19.6053 47.5794 19.1821 51.1951 20.0554C58.3787 21.9802 62.6095 29.4799 60.7308 36.8387ZM43.0747 25.4537C41.007 26.6822 39.5202 28.6392 38.8336 30.9699L56.3872 35.6733C57.6053 30.7795 54.7822 25.7897 50.0028 24.509C47.7724 23.9114 45.2084 24.2111 43.0747 25.4537Z" fill="url(#paint0_linear_618_6)"/>
<g opacity="0.5" filter="url(#filter0_f_618_6)">
<path d="M30.0249 69.0402L44.8665 73.017C50.25 74.4594 54.0754 72.7203 55.2595 68.3012L59.2699 53.3342C60.4735 48.8426 58.0145 45.4817 52.6311 44.0392L37.7895 40.0624C32.3193 38.5967 28.5979 40.3016 27.3944 44.7931L23.384 59.7602C22.1999 64.1793 24.5547 67.5744 30.0249 69.0402Z" fill="#FA452D"/>
</g>
<g filter="url(#filter1_bd_618_6)">
<path d="M80.3396 38.5898C80.4204 38.8491 81.7133 44.2293 81.6701 44.4977L76.8115 45.7995C76.6521 45.5811 74.9516 39.4342 74.8784 39.174C73.1414 32.6913 66.4598 28.8491 59.9548 30.5921C53.4498 32.3351 49.5845 39.0034 51.3216 45.4861C51.4338 45.7265 53.0844 51.8867 53.1075 52.151L48.1311 53.4844C48.0189 53.244 46.3682 47.0838 46.3452 46.8195C44.306 37.6968 49.8471 28.5812 58.9075 26.1535C67.9679 23.7258 77.3244 28.8495 80.1198 37.7696L80.3396 38.5898Z" fill="url(#paint1_linear_618_6)"/>
<path d="M80.2429 38.6157L80.243 38.6156L80.0237 37.7975C77.2437 28.9301 67.9416 23.8363 58.9334 26.2501C49.9245 28.664 44.4153 37.7276 46.4428 46.7977L46.4457 46.8107L46.4448 46.8108L46.4448 46.8109L46.4449 46.8114L46.4451 46.8133L46.4461 46.8199C46.447 46.8256 46.4484 46.8329 46.4501 46.842C46.4537 46.8601 46.4588 46.884 46.4654 46.9134C46.4786 46.9721 46.4973 47.0512 46.5211 47.1481C46.5685 47.3417 46.6352 47.6045 46.715 47.9136C46.8746 48.5316 47.0866 49.3336 47.3013 50.135C47.516 50.9364 47.7335 51.7369 47.9043 52.352C47.9897 52.6596 48.0634 52.9205 48.1191 53.1119C48.147 53.2076 48.1703 53.2855 48.1882 53.343C48.1905 53.3503 48.1927 53.3572 48.1948 53.3638L52.992 52.0784C52.9905 52.0717 52.9889 52.0646 52.9873 52.0571C52.9741 51.9983 52.9553 51.9192 52.9316 51.8224C52.8842 51.6288 52.8175 51.366 52.7377 51.0569C52.578 50.4388 52.3661 49.6368 52.1514 48.8354C51.9366 48.0341 51.7191 47.2335 51.5483 46.6185C51.4629 46.3109 51.3893 46.05 51.3336 45.8586C51.3057 45.7629 51.2824 45.685 51.2644 45.6275C51.2554 45.5987 51.2479 45.5755 51.2419 45.558C51.2389 45.5493 51.2364 45.5423 51.2344 45.5369L51.2319 45.5307L51.2312 45.5289C51.231 45.5285 51.2309 45.5283 51.2309 45.5283L51.2272 45.5204L51.225 45.5119C49.4736 38.9756 53.3709 32.2527 59.9289 30.4955C66.4868 28.7383 73.2231 32.6115 74.9748 39.1475M80.2429 38.6157L74.8784 39.174M80.2429 38.6157L80.2441 38.6195C80.2831 38.7447 80.6254 40.1494 80.954 41.563C81.1179 42.2683 81.2778 42.9733 81.394 43.5186C81.4521 43.7914 81.4992 44.0234 81.5302 44.1952C81.5458 44.2812 81.5572 44.3511 81.564 44.4029C81.5649 44.4096 81.5657 44.416 81.5664 44.4219M80.2429 38.6157L81.5664 44.4219M74.9748 39.1475C74.9749 39.1477 74.9749 39.1479 74.975 39.1481L74.8784 39.174M74.9748 39.1475C74.9748 39.1473 74.9747 39.1471 74.9747 39.1469L74.8784 39.174M74.9748 39.1475C74.9813 39.1706 74.9996 39.2365 75.0278 39.3378C75.1645 39.8291 75.5329 41.1535 75.9088 42.4751C76.1359 43.2732 76.3655 44.0697 76.5483 44.68C76.6397 44.9853 76.7192 45.2434 76.7807 45.4317C76.8115 45.526 76.8375 45.6019 76.8581 45.6571C76.8612 45.6657 76.8643 45.6737 76.8671 45.6811M74.8784 39.174C74.8847 39.1964 74.903 39.2621 74.9312 39.3637C75.2322 40.4459 76.6658 45.5999 76.8115 45.7995M76.8671 45.6811L76.7856 45.7029L76.8115 45.7995M76.8671 45.6811L81.5664 44.4219M76.8671 45.6811C76.8735 45.6976 76.879 45.7112 76.8837 45.722C76.8917 45.74 76.8944 45.7435 76.8923 45.7406L76.8115 45.7995M76.8115 45.7995L81.5664 44.4219" stroke="url(#paint2_linear_618_6)" stroke-opacity="0.5" stroke-width="0.2"/>
</g>
<g filter="url(#filter2_b_618_6)">
<path d="M33.1031 70.8376C30.3361 60.5108 36.255 49.9018 46.3273 47.2029L80.9236 37.9328C90.996 35.234 101.426 41.4622 104.193 51.789L109.728 72.4426C112.495 82.7694 106.566 93.3409 96.4934 96.0398L61.897 105.31C51.8247 108.009 41.4043 101.818 38.6373 91.4912L33.1031 70.8376Z" fill="#FFAC95" fill-opacity="0.4"/>
<path d="M46.1979 46.7199C35.8463 49.4936 29.785 60.3861 32.6202 70.967L38.1543 91.6206C40.9898 102.203 51.6761 108.566 62.0265 105.793L96.6228 96.5228C106.973 93.7494 113.046 82.8953 110.211 72.3132L104.676 51.6596C101.841 41.0787 91.1458 34.6762 80.7942 37.4499L46.1979 46.7199Z" stroke="url(#paint3_linear_618_6)" stroke-linecap="round" stroke-linejoin="round"/>
</g>
<g filter="url(#filter3_bd_618_6)">
<mask id="path-7-inside-1_618_6" fill="white">
<path fill-rule="evenodd" clip-rule="evenodd" d="M53.8158 62.7385C55.3486 62.3278 56.212 60.733 55.801 59.199L54.638 54.8587C54.227 53.3246 52.6818 52.3752 51.149 52.7859C49.6528 53.1868 48.7529 54.7914 49.1639 56.3255L50.3269 60.6657C50.7379 62.1998 52.3196 63.1395 53.8158 62.7385ZM81.8816 55.2186C83.4143 54.8079 84.2777 53.2131 83.8667 51.6791L82.7037 47.3388C82.2927 45.8048 80.7475 44.8553 79.2148 45.266C77.7185 45.6669 76.8186 47.2715 77.2296 48.8056L78.3926 53.1458C78.8036 54.6799 80.3853 55.6196 81.8816 55.2186Z"/>
</mask>
<path fill-rule="evenodd" clip-rule="evenodd" d="M53.8158 62.7385C55.3486 62.3278 56.212 60.733 55.801 59.199L54.638 54.8587C54.227 53.3246 52.6818 52.3752 51.149 52.7859C49.6528 53.1868 48.7529 54.7914 49.1639 56.3255L50.3269 60.6657C50.7379 62.1998 52.3196 63.1395 53.8158 62.7385ZM81.8816 55.2186C83.4143 54.8079 84.2777 53.2131 83.8667 51.6791L82.7037 47.3388C82.2927 45.8048 80.7475 44.8553 79.2148 45.266C77.7185 45.6669 76.8186 47.2715 77.2296 48.8056L78.3926 53.1458C78.8036 54.6799 80.3853 55.6196 81.8816 55.2186Z" fill="url(#paint4_linear_618_6)"/>
<path d="M55.801 59.199L55.9942 59.1472L55.801 59.199ZM54.638 54.8587L54.4448 54.9105L54.638 54.8587ZM83.8667 51.6791L84.0599 51.6273L83.8667 51.6791ZM82.7037 47.3388L82.5105 47.3906L82.7037 47.3388ZM55.6078 59.2507C55.9919 60.6844 55.184 62.1649 53.7641 62.5454L53.8676 62.9317C55.5132 62.4908 56.4321 60.7817 55.9942 59.1472L55.6078 59.2507ZM54.4448 54.9105L55.6078 59.2507L55.9942 59.1472L54.8312 54.8069L54.4448 54.9105ZM51.2008 52.9791C52.6207 52.5986 54.0607 53.4768 54.4448 54.9105L54.8312 54.8069C54.3932 53.1725 52.7429 52.1518 51.0973 52.5927L51.2008 52.9791ZM49.3571 56.2737C48.9734 54.8418 49.8158 53.3502 51.2008 52.9791L51.0973 52.5927C49.4898 53.0234 48.5323 54.7411 48.9707 56.3772L49.3571 56.2737ZM50.5201 60.614L49.3571 56.2737L48.9707 56.3772L50.1337 60.7175L50.5201 60.614ZM53.7641 62.5454C52.379 62.9165 50.9037 62.0459 50.5201 60.614L50.1337 60.7175C50.5721 62.3537 52.2601 63.3624 53.8676 62.9317L53.7641 62.5454ZM83.6735 51.7308C84.0577 53.1645 83.2497 54.645 81.8298 55.0255L81.9333 55.4118C83.5789 54.9709 84.4978 53.2618 84.0599 51.6273L83.6735 51.7308ZM82.5105 47.3906L83.6735 51.7308L84.0599 51.6273L82.8969 47.287L82.5105 47.3906ZM79.2665 45.4592C80.6864 45.0787 82.1264 45.9569 82.5105 47.3906L82.8969 47.287C82.459 45.6526 80.8086 44.6319 79.163 45.0728L79.2665 45.4592ZM77.4228 48.7538C77.0391 47.3219 77.8815 45.8303 79.2665 45.4592L79.163 45.0728C77.5555 45.5035 76.598 47.2212 77.0364 48.8574L77.4228 48.7538ZM78.5858 53.0941L77.4228 48.7538L77.0364 48.8574L78.1994 53.1976L78.5858 53.0941ZM81.8298 55.0255C80.4447 55.3966 78.9695 54.526 78.5858 53.0941L78.1994 53.1976C78.6378 54.8338 80.3259 55.8425 81.9333 55.4118L81.8298 55.0255Z" fill="url(#paint5_linear_618_6)" fill-opacity="0.5" mask="url(#path-7-inside-1_618_6)"/>
</g>
<defs>
<filter id="filter0_f_618_6" x="6.08484" y="22.5493" width="70.4851" height="67.9641" filterUnits="userSpaceOnUse" color-interpolation-filters="sRGB">
<feFlood flood-opacity="0" result="BackgroundImageFix"/>
<feBlend mode="normal" in="SourceGraphic" in2="BackgroundImageFix" result="shape"/>
<feGaussianBlur stdDeviation="8.5" result="effect1_foregroundBlur_618_6"/>
</filter>
<filter id="filter1_bd_618_6" x="30.9233" y="10.5515" width="65.7478" height="57.9329" filterUnits="userSpaceOnUse" color-interpolation-filters="sRGB">
<feFlood flood-opacity="0" result="BackgroundImageFix"/>
<feGaussianBlur in="BackgroundImage" stdDeviation="7.5"/>
<feComposite in2="SourceAlpha" operator="in" result="effect1_backgroundBlur_618_6"/>
<feColorMatrix in="SourceAlpha" type="matrix" values="0 0 0 0 0 0 0 0 0 0 0 0 0 0 0 0 0 0 127 0" result="hardAlpha"/>
<feOffset dx="5" dy="5"/>
<feGaussianBlur stdDeviation="5"/>
<feColorMatrix type="matrix" values="0 0 0 0 1 0 0 0 0 0.447059 0 0 0 0 0.368627 0 0 0 0.5 0"/>
<feBlend mode="normal" in2="effect1_backgroundBlur_618_6" result="effect2_dropShadow_618_6"/>
<feBlend mode="normal" in="SourceGraphic" in2="effect2_dropShadow_618_6" result="shape"/>
</filter>
<filter id="filter2_b_618_6" x="16.4229" y="21.3022" width="109.984" height="100.641" filterUnits="userSpaceOnUse" color-interpolation-filters="sRGB">
<feFlood flood-opacity="0" result="BackgroundImageFix"/>
<feGaussianBlur in="BackgroundImage" stdDeviation="7.5"/>
<feComposite in2="SourceAlpha" operator="in" result="effect1_backgroundBlur_618_6"/>
<feBlend mode="normal" in="SourceGraphic" in2="effect1_backgroundBlur_618_6" result="shape"/>
</filter>
<filter id="filter3_bd_618_6" x="34.0643" y="30.1702" width="64.9045" height="47.661" filterUnits="userSpaceOnUse" color-interpolation-filters="sRGB">
<feFlood flood-opacity="0" result="BackgroundImageFix"/>
<feGaussianBlur in="BackgroundImage" stdDeviation="7.5"/>
<feComposite in2="SourceAlpha" operator="in" result="effect1_backgroundBlur_618_6"/>
<feColorMatrix in="SourceAlpha" type="matrix" values="0 0 0 0 0 0 0 0 0 0 0 0 0 0 0 0 0 0 127 0" result="hardAlpha"/>
<feOffset dx="5" dy="5"/>
<feGaussianBlur stdDeviation="5"/>
<feColorMatrix type="matrix" values="0 0 0 0 1 0 0 0 0 0.447059 0 0 0 0 0.368627 0 0 0 0.5 0"/>
<feBlend mode="normal" in2="effect1_backgroundBlur_618_6" result="effect2_dropShadow_618_6"/>
<feBlend mode="normal" in="SourceGraphic" in2="effect2_dropShadow_618_6" result="shape"/>
</filter>
<linearGradient id="paint0_linear_618_6" x1="46.2969" y1="54.8363" x2="-10.4796" y2="64.6359" gradientUnits="userSpaceOnUse">
<stop stop-color="#FFA78F"/>
<stop offset="1" stop-color="#F23E2C"/>
</linearGradient>
<linearGradient id="paint1_linear_618_6" x1="74.5019" y1="26.389" x2="37.3773" y2="38.2849" gradientUnits="userSpaceOnUse">
<stop stop-color="white"/>
<stop offset="1" stop-color="white" stop-opacity="0.2"/>
</linearGradient>
<linearGradient id="paint2_linear_618_6" x1="77.5315" y1="33.9019" x2="45.2729" y2="44.7168" gradientUnits="userSpaceOnUse">
<stop stop-color="white"/>
<stop offset="1" stop-color="white" stop-opacity="0"/>
</linearGradient>
<linearGradient id="paint3_linear_618_6" x1="41.2106" y1="55.8295" x2="90.2287" y2="99.3147" gradientUnits="userSpaceOnUse">
<stop stop-color="white" stop-opacity="0.25"/>
<stop offset="1" stop-color="white" stop-opacity="0"/>
</linearGradient>
<linearGradient id="paint4_linear_618_6" x1="80.0554" y1="46.9668" x2="44.1896" y2="60.9287" gradientUnits="userSpaceOnUse">
<stop stop-color="white"/>
<stop offset="1" stop-color="white" stop-opacity="0.2"/>
</linearGradient>
<linearGradient id="paint5_linear_618_6" x1="81.9045" y1="50.1044" x2="51.0761" y2="63.1847" gradientUnits="userSpaceOnUse">
<stop stop-color="white"/>
<stop offset="1" stop-color="white" stop-opacity="0"/>
</linearGradient>
</defs>
</svg>
