<svg width="120" height="120" viewBox="0 0 120 120" fill="none" xmlns="http://www.w3.org/2000/svg">
<g clip-path="url(#clip0_618_6)">
<g filter="url(#filter0_b_618_6)">
<path d="M111.869 54.846C110.646 53.4131 109.172 52.2189 107.559 51.2508C104.021 49.0925 99.8665 48.1987 95.7236 48.6645C95.5994 48.35 95.4118 48.0253 95.2467 47.721C95.0846 47.4116 94.8531 46.7545 94.5924 46.3199L93.8817 45.3022C93.5392 44.7142 93.1277 44.189 92.6716 43.6684C92.6496 43.5891 92.6052 43.4894 92.5321 43.3795L92.3812 43.2889C91.1788 41.8683 89.7881 40.6512 88.2067 39.636L87.9255 39.4672C87.2097 39.0376 86.4673 38.6581 85.686 38.3317L85.3792 38.1476C84.5524 37.787 83.6807 37.5072 82.7859 37.3179C71.3743 34.7148 61.7602 43.0278 59.2175 53.8115C58.0781 59.418 58.196 65.1951 59.5518 70.6997C61.6498 78.4962 64.5507 86.0096 68.2237 93.1518L68.6413 93.9623L69.5121 93.9599C77.5375 93.8039 85.5016 92.8114 93.3073 90.9936C98.8258 89.6148 103.992 86.9744 108.378 83.3164C116.65 75.9712 119.464 63.5769 111.869 54.846V54.846Z" fill="url(#paint0_linear_618_6)"/>
</g>
<g opacity="0.5" filter="url(#filter1_f_618_6)">
<path d="M95.0961 58.7022C94.3244 57.798 93.3942 57.0445 92.3763 56.4335C90.1436 55.0716 87.522 54.5075 84.9076 54.8015C84.8293 54.603 84.7109 54.3981 84.6067 54.2061C84.5044 54.0109 84.3583 53.5962 84.1938 53.3219L83.7453 52.6798C83.5292 52.3087 83.2695 51.9772 82.9817 51.6487C82.9678 51.5987 82.9398 51.5358 82.8936 51.4664L82.7985 51.4093C82.0396 50.5128 81.1621 49.7447 80.1641 49.1041L79.9867 48.9976C79.535 48.7265 79.0665 48.487 78.5735 48.2811L78.3799 48.1649C77.8582 47.9374 77.308 47.7608 76.7434 47.6413C69.5422 45.9987 63.4754 51.2445 61.8708 58.0494C61.1518 61.5874 61.2262 65.233 62.0818 68.7066C63.4057 73.6265 65.2363 78.3678 67.5541 82.8748L67.8176 83.3863L68.3671 83.3847C73.4315 83.2863 78.4571 82.66 83.3828 81.5129C86.8652 80.6428 90.1254 78.9766 92.8932 76.6682C98.113 72.0331 99.8887 64.2118 95.0961 58.7022V58.7022Z" fill="#EE2965"/>
</g>
<g filter="url(#filter2_b_618_6)">
<path d="M104.701 28.6996C104.404 28.4079 104.057 28.1736 103.683 27.9917C102.862 27.5852 101.93 27.469 101.027 27.6519C100.994 27.5851 100.946 27.5172 100.904 27.4534C100.862 27.3885 100.798 27.2483 100.732 27.1577L100.556 26.9474C100.469 26.8246 100.369 26.7169 100.258 26.6112C100.252 26.5941 100.24 26.5731 100.222 26.5503L100.187 26.5333C99.8946 26.2438 99.5648 26.0028 99.197 25.81L99.1318 25.7783C98.9658 25.6976 98.795 25.6285 98.6167 25.5718L98.5456 25.5372C98.3566 25.4738 98.1592 25.4291 97.9586 25.4048C95.3957 25.0531 93.4404 27.0697 93.0898 29.4931C92.9477 30.7496 93.0857 32.0191 93.4909 33.2047C94.1041 34.8805 94.8884 36.4783 95.8356 37.9795L95.9433 38.1498L96.1349 38.1324C97.8987 37.9424 99.6328 37.5694 101.316 37.0178C102.504 36.6072 103.59 35.9257 104.485 35.0353C106.164 33.2577 106.543 30.4745 104.701 28.6996V28.6996Z" fill="url(#paint1_linear_618_6)"/>
</g>
<g filter="url(#filter3_b_618_6)">
<mask id="path-4-outside-1_618_6" maskUnits="userSpaceOnUse" x="-4.15588" y="9.8442" width="102.191" height="98.9319" fill="black">
<rect fill="white" x="-4.15588" y="9.8442" width="102.191" height="98.9319"/>
<path d="M64.5521 15.4262C61.8356 15.009 59.0692 15.0948 56.3646 15.5629C50.3993 16.5511 44.9584 19.5234 40.8262 23.9866C40.3892 23.7576 39.8725 23.5777 39.4001 23.399C38.9262 23.2117 38.0442 22.7066 37.3419 22.475L35.587 22.0282C34.6482 21.7051 33.693 21.5172 32.6931 21.3768C32.5933 21.3102 32.4491 21.2425 32.2636 21.1907L32.0107 21.2345C29.3284 20.8113 26.6322 20.7923 23.9178 21.1782L23.4463 21.2598C22.2461 21.4675 21.0644 21.7559 19.8904 22.1401L19.376 22.2291C18.1191 22.6188 16.8894 23.1406 15.7206 23.7844C0.634332 31.7855 -2.06214 50.1313 5.40723 64.4664C9.49231 71.7454 15.1287 78.0144 21.8729 82.8025C31.6214 89.4149 41.9867 94.9493 52.8512 99.3379L54.0851 99.8351L55.0446 99.0024C63.7608 91.1811 71.612 82.4941 78.5016 73.0464C83.283 66.2636 86.4732 58.423 87.8316 50.2019C89.9677 34.2044 81.2628 17.8317 64.5521 15.4262V15.4262Z"/>
</mask>
<path d="M64.5521 15.4262C61.8356 15.009 59.0692 15.0948 56.3646 15.5629C50.3993 16.5511 44.9584 19.5234 40.8262 23.9866C40.3892 23.7576 39.8725 23.5777 39.4001 23.399C38.9262 23.2117 38.0442 22.7066 37.3419 22.475L35.587 22.0282C34.6482 21.7051 33.693 21.5172 32.6931 21.3768C32.5933 21.3102 32.4491 21.2425 32.2636 21.1907L32.0107 21.2345C29.3284 20.8113 26.6322 20.7923 23.9178 21.1782L23.4463 21.2598C22.2461 21.4675 21.0644 21.7559 19.8904 22.1401L19.376 22.2291C18.1191 22.6188 16.8894 23.1406 15.7206 23.7844C0.634332 31.7855 -2.06214 50.1313 5.40723 64.4664C9.49231 71.7454 15.1287 78.0144 21.8729 82.8025C31.6214 89.4149 41.9867 94.9493 52.8512 99.3379L54.0851 99.8351L55.0446 99.0024C63.7608 91.1811 71.612 82.4941 78.5016 73.0464C83.283 66.2636 86.4732 58.423 87.8316 50.2019C89.9677 34.2044 81.2628 17.8317 64.5521 15.4262V15.4262Z" fill="#FF749F" fill-opacity="0.35"/>
<path d="M56.3646 15.5629L56.5281 16.5495L56.5351 16.5482L56.3646 15.5629ZM40.8262 23.9866L40.362 24.8723C40.7621 25.082 41.2531 24.9974 41.56 24.666L40.8262 23.9866ZM39.4001 23.399L39.0326 24.329C39.0371 24.3308 39.0417 24.3326 39.0463 24.3343L39.4001 23.399ZM37.3419 22.475L37.6551 21.5253C37.6332 21.5181 37.611 21.5116 37.5886 21.5059L37.3419 22.475ZM35.587 22.0282L35.2616 22.9738C35.2875 22.9827 35.3138 22.9905 35.3403 22.9973L35.587 22.0282ZM32.6931 21.3768L32.1381 22.2086C32.2631 22.292 32.4052 22.3462 32.5541 22.3671L32.6931 21.3768ZM32.2636 21.1907L32.5323 20.2275C32.3893 20.1876 32.2393 20.18 32.093 20.2053L32.2636 21.1907ZM32.0107 21.2345L31.8548 22.2222C31.963 22.2393 32.0733 22.2385 32.1812 22.2198L32.0107 21.2345ZM23.9178 21.1782L23.777 20.1882C23.7671 20.1896 23.7572 20.1911 23.7473 20.1928L23.9178 21.1782ZM19.8904 22.1401L20.0609 23.1254C20.1085 23.1172 20.1554 23.1055 20.2014 23.0905L19.8904 22.1401ZM19.376 22.2291L19.2055 21.2437C19.163 21.2511 19.1211 21.2612 19.0799 21.2739L19.376 22.2291ZM15.7206 23.7844L16.1891 24.6678C16.1938 24.6653 16.1984 24.6628 16.203 24.6603L15.7206 23.7844ZM5.40723 64.4664L4.5204 64.9285C4.52518 64.9376 4.53011 64.9468 4.53517 64.9558L5.40723 64.4664ZM21.8729 82.8025L21.294 83.6179C21.2998 83.6221 21.3057 83.6261 21.3116 83.6301L21.8729 82.8025ZM52.8512 99.3379L52.4767 100.265L52.4775 100.265L52.8512 99.3379ZM54.0851 99.8351L53.7113 100.763C54.0595 100.903 54.457 100.836 54.7405 100.59L54.0851 99.8351ZM55.0446 99.0024L55.7001 99.7577C55.7042 99.754 55.7084 99.7504 55.7125 99.7467L55.0446 99.0024ZM78.5016 73.0464L79.3096 73.6356C79.3127 73.6313 79.3158 73.627 79.3189 73.6226L78.5016 73.0464ZM87.8316 50.2019L88.8183 50.3649C88.8199 50.3547 88.8215 50.3445 88.8228 50.3342L87.8316 50.2019ZM64.7039 14.4378C61.8665 14.002 58.9904 14.0936 56.1941 14.5775L56.5351 16.5482C59.1481 16.096 61.8047 16.016 64.4003 16.4146L64.7039 14.4378ZM56.2012 14.5763C50.012 15.6016 44.3719 18.685 40.0924 23.3072L41.56 24.666C45.5449 20.3619 50.7867 17.5006 56.5281 16.5494L56.2012 14.5763ZM41.2904 23.1009C40.7839 22.8354 40.1848 22.6267 39.7539 22.4637L39.0463 24.3343C39.5602 24.5287 39.9945 24.6798 40.362 24.8723L41.2904 23.1009ZM39.7677 22.469C39.5777 22.394 39.2998 22.2516 38.8938 22.0543C38.5267 21.8758 38.0767 21.6644 37.6551 21.5253L37.0287 23.4247C37.3094 23.5172 37.6516 23.6742 38.0195 23.853C38.3486 24.013 38.7486 24.2168 39.0326 24.329L39.7677 22.469ZM37.5886 21.5059L35.8338 21.0591L35.3403 22.9973L37.0952 23.4441L37.5886 21.5059ZM35.9125 21.0826C34.8896 20.7306 33.8649 20.5315 32.8321 20.3865L32.5541 22.3671C33.5211 22.5029 34.4068 22.6796 35.2616 22.9738L35.9125 21.0826ZM33.2481 20.545C33.0458 20.41 32.8012 20.3025 32.5323 20.2275L31.9948 22.1539C32.0437 22.1676 32.0805 22.1815 32.1058 22.1926C32.1318 22.2041 32.1415 22.2109 32.1381 22.2086L33.2481 20.545ZM32.093 20.2053L31.8401 20.2491L32.1812 22.2198L32.4341 22.176L32.093 20.2053ZM32.1665 20.2467C29.3852 19.8079 26.589 19.7884 23.777 20.1882L24.0585 22.1682C26.6754 21.7962 29.2716 21.8147 31.8548 22.2222L32.1665 20.2467ZM23.7473 20.1928L23.2758 20.2744L23.6168 22.2452L24.0883 22.1636L23.7473 20.1928ZM23.2758 20.2744C22.0306 20.4899 20.8018 20.7897 19.5794 21.1897L20.2014 23.0905C21.327 22.7221 22.4617 22.4451 23.6168 22.2452L23.2758 20.2744ZM19.7198 21.1547L19.2055 21.2437L19.5465 23.2144L20.0609 23.1254L19.7198 21.1547ZM19.0799 21.2739C17.7583 21.6837 16.4662 22.232 15.2381 22.9084L16.203 24.6603C17.3126 24.0492 18.4798 23.5539 19.6721 23.1842L19.0799 21.2739ZM15.252 22.9009C-0.453685 31.2306 -3.1265 50.2527 4.5204 64.9285L6.29406 64.0043C-0.997783 50.0099 1.72235 32.3404 16.1891 24.6678L15.252 22.9009ZM4.53517 64.9558C8.69229 72.3632 14.4285 78.7437 21.294 83.6179L22.4518 81.9871C15.8288 77.2851 10.2923 71.1277 6.27929 63.977L4.53517 64.9558ZM21.3116 83.6301C31.1182 90.2819 41.5461 95.8499 52.4767 100.265L53.2258 98.4106C42.4273 94.0488 32.1246 88.5479 22.4343 81.975L21.3116 83.6301ZM52.4775 100.265L53.7113 100.763L54.4589 98.9076L53.225 98.4103L52.4775 100.265ZM54.7405 100.59L55.7001 99.7577L54.3892 98.2471L53.4297 99.0798L54.7405 100.59ZM55.7125 99.7467C64.4806 91.8788 72.3787 83.1398 79.3096 73.6356L77.6936 72.4572C70.8453 81.8483 63.0411 90.4833 54.3768 98.2581L55.7125 99.7467ZM79.3189 73.6226C84.1884 66.7149 87.4356 58.7327 88.8183 50.3649L86.845 50.0388C85.5108 58.1133 82.3777 65.8123 77.6842 72.4702L79.3189 73.6226ZM88.8228 50.3342C91.0085 33.9655 82.1051 16.9427 64.6946 14.4364L64.4097 16.416C80.4205 18.7208 88.9269 34.4434 86.8404 50.0695L88.8228 50.3342Z" fill="url(#paint2_linear_618_6)" mask="url(#path-4-outside-1_618_6)"/>
</g>
<g filter="url(#filter4_bd_618_6)">
<path d="M75.9284 40.602C76.1122 42.4288 74.856 44.0986 73.1068 44.4498C72.1483 44.523 71.1747 44.2545 70.4485 43.6297C69.7224 43.0048 69.2627 42.1088 69.1743 41.1131L69.1513 40.9803C68.6327 37.9842 66.3259 35.5978 63.4004 35.0446C61.4896 34.7175 60.2054 32.909 60.494 31.0049C60.8253 29.0934 62.5902 27.8124 64.4522 28.1126C70.3492 29.2552 74.9295 34.0647 75.8402 40.0919L75.9284 40.602Z" fill="url(#paint3_linear_618_6)"/>
<path d="M69.3735 41.0954L69.3727 41.0872L69.3713 41.079L69.3483 40.9461C68.8161 37.8706 66.4477 35.4173 63.4375 34.848L63.4375 34.848L63.4341 34.8474C61.6328 34.5391 60.4202 32.8339 60.6914 31.037C61.0055 29.2318 62.6691 28.0294 64.4173 28.3095C70.2283 29.4369 74.7444 34.1779 75.6424 40.1218L75.6424 40.1218L75.6431 40.1261L75.7301 40.629C75.8992 42.3464 74.7194 43.9156 73.0794 44.2513C72.1701 44.3179 71.2564 44.0609 70.579 43.478C69.8932 42.888 69.4574 42.0404 69.3735 41.0954Z" stroke="url(#paint4_linear_618_6)" stroke-width="0.4"/>
</g>
</g>
<defs>
<filter id="filter0_b_618_6" x="45.4413" y="23.8369" width="83.8625" height="83.1255" filterUnits="userSpaceOnUse" color-interpolation-filters="sRGB">
<feFlood flood-opacity="0" result="BackgroundImageFix"/>
<feGaussianBlur in="BackgroundImage" stdDeviation="6.5"/>
<feComposite in2="SourceAlpha" operator="in" result="effect1_backgroundBlur_618_6"/>
<feBlend mode="normal" in="SourceGraphic" in2="effect1_backgroundBlur_618_6" result="shape"/>
</filter>
<filter id="filter1_f_618_6" x="43.381" y="29.3378" width="72.5135" height="72.0485" filterUnits="userSpaceOnUse" color-interpolation-filters="sRGB">
<feFlood flood-opacity="0" result="BackgroundImageFix"/>
<feBlend mode="normal" in="SourceGraphic" in2="BackgroundImageFix" result="shape"/>
<feGaussianBlur stdDeviation="9" result="effect1_foregroundBlur_618_6"/>
</filter>
<filter id="filter2_b_618_6" x="80.0355" y="12.3647" width="38.8871" height="38.785" filterUnits="userSpaceOnUse" color-interpolation-filters="sRGB">
<feFlood flood-opacity="0" result="BackgroundImageFix"/>
<feGaussianBlur in="BackgroundImage" stdDeviation="6.5"/>
<feComposite in2="SourceAlpha" operator="in" result="effect1_backgroundBlur_618_6"/>
<feBlend mode="normal" in="SourceGraphic" in2="effect1_backgroundBlur_618_6" result="shape"/>
</filter>
<filter id="filter3_b_618_6" x="-23.6006" y="-9.84265" width="136.749" height="134.678" filterUnits="userSpaceOnUse" color-interpolation-filters="sRGB">
<feFlood flood-opacity="0" result="BackgroundImageFix"/>
<feGaussianBlur in="BackgroundImage" stdDeviation="12"/>
<feComposite in2="SourceAlpha" operator="in" result="effect1_backgroundBlur_618_6"/>
<feBlend mode="normal" in="SourceGraphic" in2="effect1_backgroundBlur_618_6" result="shape"/>
</filter>
<filter id="filter4_bd_618_6" x="45.4535" y="13.069" width="45.4928" height="46.3926" filterUnits="userSpaceOnUse" color-interpolation-filters="sRGB">
<feFlood flood-opacity="0" result="BackgroundImageFix"/>
<feGaussianBlur in="BackgroundImage" stdDeviation="7.5"/>
<feComposite in2="SourceAlpha" operator="in" result="effect1_backgroundBlur_618_6"/>
<feColorMatrix in="SourceAlpha" type="matrix" values="0 0 0 0 0 0 0 0 0 0 0 0 0 0 0 0 0 0 127 0" result="hardAlpha"/>
<feOffset dx="5" dy="5"/>
<feGaussianBlur stdDeviation="5"/>
<feColorMatrix type="matrix" values="0 0 0 0 1 0 0 0 0 0.321569 0 0 0 0 0.54902 0 0 0 0.5 0"/>
<feBlend mode="normal" in2="effect1_backgroundBlur_618_6" result="effect2_dropShadow_618_6"/>
<feBlend mode="normal" in="SourceGraphic" in2="effect2_dropShadow_618_6" result="shape"/>
</filter>
<linearGradient id="paint0_linear_618_6" x1="84.953" y1="75.1417" x2="27.4139" y2="71.2523" gradientUnits="userSpaceOnUse">
<stop stop-color="#FF759F"/>
<stop offset="1" stop-color="#FF196E"/>
</linearGradient>
<linearGradient id="paint1_linear_618_6" x1="99.1693" y1="33.6899" x2="86.4263" y2="33.9497" gradientUnits="userSpaceOnUse">
<stop stop-color="#FF759F"/>
<stop offset="1" stop-color="#FF196E"/>
</linearGradient>
<linearGradient id="paint2_linear_618_6" x1="12.2881" y1="32.9621" x2="75.1957" y2="90.995" gradientUnits="userSpaceOnUse">
<stop stop-color="white" stop-opacity="0.25"/>
<stop offset="1" stop-color="white" stop-opacity="0"/>
</linearGradient>
<linearGradient id="paint3_linear_618_6" x1="73.0536" y1="29.691" x2="58.0123" y2="32.6871" gradientUnits="userSpaceOnUse">
<stop stop-color="white"/>
<stop offset="1" stop-color="white" stop-opacity="0.2"/>
</linearGradient>
<linearGradient id="paint4_linear_618_6" x1="62.422" y1="30.3761" x2="75.7253" y2="39.3488" gradientUnits="userSpaceOnUse">
<stop stop-color="white" stop-opacity="0.25"/>
<stop offset="1" stop-color="white" stop-opacity="0"/>
</linearGradient>
<clipPath id="clip0_618_6">
<rect width="120" height="120" fill="white"/>
</clipPath>
</defs>
</svg>
