<svg width="120" height="120" viewBox="0 0 120 120" fill="none" xmlns="http://www.w3.org/2000/svg">
<path d="M72.8253 18.7906C68.4858 16.5329 63.4254 16.1438 58.8147 17.6933L28.3995 25.843C23.5992 26.8152 19.4113 29.6824 16.782 33.8073C14.5243 38.1468 14.1351 43.2072 15.6934 47.8504L23.8431 78.2653C24.8152 83.0657 27.6824 87.2535 31.8074 89.8827C36.1469 92.1404 41.2073 92.5295 45.8506 90.9713L76.2657 82.8215C81.0335 81.8581 85.2539 78.9822 87.8832 74.8572C90.1083 70.5265 90.5301 65.4574 88.9718 60.8141L80.8222 30.3993C79.8175 25.6077 76.9502 21.4198 72.8253 18.7906" fill="url(#paint0_linear_618_6)"/>
<g opacity="0.5" filter="url(#filter0_f_618_6)">
<path d="M57.47 27.3622L34.533 33.7601C26.2132 36.0808 22.564 41.7155 24.6113 49.0552L31.5453 73.9141C33.6262 81.3741 39.6383 84.2102 47.9581 81.8895L70.895 75.4915C79.3489 73.1334 82.8882 67.6331 80.8073 60.1731L73.8733 35.3143C71.826 27.9745 65.9239 25.004 57.47 27.3622Z" fill="#30AD31"/>
</g>
<g filter="url(#filter1_b_618_6)">
<mask id="path-3-outside-1_618_6" maskUnits="userSpaceOnUse" x="34.2559" y="33.5605" width="76" height="76" fill="black">
<rect fill="white" x="34.2559" y="33.5605" width="76" height="76"/>
<path d="M103.453 39.692C99.5319 36.1009 94.3284 34.2687 89.0515 34.5985H54.8254C49.5119 34.2687 44.3084 36.1009 40.3874 39.692C36.7962 43.613 34.964 48.8165 35.2938 54.1299V88.3558C34.964 93.6692 36.7962 98.8727 40.3874 102.794C44.3084 106.385 49.5119 108.217 54.8254 107.887H89.0515C94.3284 108.217 99.5686 106.385 103.49 102.794C107.044 98.8727 108.913 93.6692 108.583 88.3558V54.1299C108.876 48.8165 107.044 43.613 103.453 39.692"/>
</mask>
<path d="M103.453 39.692C99.5319 36.1009 94.3284 34.2687 89.0515 34.5985H54.8254C49.5119 34.2687 44.3084 36.1009 40.3874 39.692C36.7962 43.613 34.964 48.8165 35.2938 54.1299V88.3558C34.964 93.6692 36.7962 98.8727 40.3874 102.794C44.3084 106.385 49.5119 108.217 54.8254 107.887H89.0515C94.3284 108.217 99.5686 106.385 103.49 102.794C107.044 98.8727 108.913 93.6692 108.583 88.3558V54.1299C108.876 48.8165 107.044 43.613 103.453 39.692" fill="#72DC60" fill-opacity="0.35"/>
<path d="M102.777 40.4295C103.185 40.8025 103.817 40.7747 104.19 40.3674C104.563 39.9602 104.536 39.3276 104.128 38.9546L102.777 40.4295ZM89.0515 34.5985V35.5985C89.0723 35.5985 89.0931 35.5978 89.1139 35.5965L89.0515 34.5985ZM54.8254 34.5985L54.7634 35.5965C54.7841 35.5978 54.8047 35.5985 54.8254 35.5985V34.5985ZM40.3874 39.692L39.712 38.9546C39.6904 38.9743 39.6697 38.995 39.6499 39.0166L40.3874 39.692ZM35.2938 54.1299H36.2938C36.2938 54.1093 36.2931 54.0886 36.2919 54.068L35.2938 54.1299ZM35.2938 88.3558L36.2919 88.4177C36.2931 88.3971 36.2938 88.3764 36.2938 88.3558H35.2938ZM40.3874 102.794L39.6499 103.469C39.6697 103.491 39.6904 103.511 39.712 103.531L40.3874 102.794ZM54.8254 107.887V106.887C54.8047 106.887 54.7841 106.888 54.7634 106.889L54.8254 107.887ZM89.0515 107.887L89.1139 106.889C89.0931 106.888 89.0723 106.887 89.0515 106.887V107.887ZM103.49 102.794L104.165 103.531C104.188 103.51 104.21 103.488 104.23 103.465L103.49 102.794ZM108.583 88.3558H107.583C107.583 88.3764 107.584 88.3971 107.585 88.4177L108.583 88.3558ZM108.583 54.1299L107.585 54.0748C107.584 54.0932 107.583 54.1115 107.583 54.1299H108.583ZM104.19 39.0166C103.817 38.6093 103.185 38.5816 102.777 38.9546C102.37 39.3276 102.342 39.9602 102.715 40.3674L104.19 39.0166ZM104.128 38.9546C100.007 35.18 94.5372 33.2537 88.9892 33.6004L89.1139 35.5965C94.1196 35.2837 99.0568 37.0218 102.777 40.4295L104.128 38.9546ZM89.0515 33.5985H54.8254V35.5985H89.0515V33.5985ZM54.8873 33.6004C49.304 33.2538 43.834 35.1793 39.712 38.9546L41.0628 40.4295C44.7827 37.0224 49.7198 35.2835 54.7634 35.5965L54.8873 33.6004ZM39.6499 39.0166C35.8746 43.1386 33.9491 48.6086 34.2957 54.1919L36.2919 54.068C35.9788 49.0244 37.7178 44.0874 41.1248 40.3674L39.6499 39.0166ZM34.2938 54.1299V88.3558H36.2938V54.1299H34.2938ZM34.2957 88.2938C33.9491 93.8771 35.8746 99.3471 39.6499 103.469L41.1248 102.118C37.7178 98.3983 35.9788 93.4613 36.2919 88.4177L34.2957 88.2938ZM39.712 103.531C43.834 107.306 49.304 109.232 54.8873 108.885L54.7634 106.889C49.7198 107.202 44.7827 105.463 41.0628 102.056L39.712 103.531ZM54.8254 108.887H89.0515V106.887H54.8254V108.887ZM88.9892 108.885C94.5355 109.232 100.042 107.307 104.165 103.531L102.814 102.056C99.0947 105.463 94.1213 107.202 89.1139 106.889L88.9892 108.885ZM104.23 103.465C107.963 99.3482 109.928 93.8814 109.581 88.2938L107.585 88.4177C107.898 93.457 106.125 98.3972 102.749 102.122L104.23 103.465ZM109.583 88.3558V54.1299H107.583V88.3558H109.583ZM109.582 54.185C109.889 48.6066 107.966 43.1387 104.19 39.0166L102.715 40.3674C106.122 44.0872 107.863 49.0264 107.585 54.0748L109.582 54.185Z" fill="url(#paint1_linear_618_6)" mask="url(#path-3-outside-1_618_6)"/>
</g>
<g filter="url(#filter2_bd_618_6)">
<mask id="path-5-inside-2_618_6" fill="white">
<path d="M92.8605 64.282L68.1987 89.017C66.9161 90.2629 65.2304 90.9591 63.4715 90.9591H54.86C54.3836 90.9591 53.9439 90.7759 53.6141 90.4461C53.2843 90.1163 53.1377 89.6766 53.1377 89.2002L53.3576 80.5155C53.3942 78.7932 54.0905 77.1808 55.2997 75.9716L72.7792 58.4922C73.0724 58.199 73.5854 58.199 73.8786 58.4922L79.9982 64.5752C80.4013 64.9783 80.9877 65.2348 81.6106 65.2348C82.9665 65.2348 84.0292 64.1354 84.0292 62.8162C84.0292 62.1566 83.7727 61.5703 83.3696 61.1306C83.2596 60.984 77.4331 55.1942 77.4331 55.1942C77.0667 54.8278 77.0667 54.2048 77.4331 53.8384L79.8883 51.3465C82.1603 49.0746 85.8248 49.0746 88.0967 51.3465L92.8605 56.1103C95.0959 58.3456 95.0959 62.0101 92.8605 64.282"/>
</mask>
<path d="M92.8605 64.282L68.1987 89.017C66.9161 90.2629 65.2304 90.9591 63.4715 90.9591H54.86C54.3836 90.9591 53.9439 90.7759 53.6141 90.4461C53.2843 90.1163 53.1377 89.6766 53.1377 89.2002L53.3576 80.5155C53.3942 78.7932 54.0905 77.1808 55.2997 75.9716L72.7792 58.4922C73.0724 58.199 73.5854 58.199 73.8786 58.4922L79.9982 64.5752C80.4013 64.9783 80.9877 65.2348 81.6106 65.2348C82.9665 65.2348 84.0292 64.1354 84.0292 62.8162C84.0292 62.1566 83.7727 61.5703 83.3696 61.1306C83.2596 60.984 77.4331 55.1942 77.4331 55.1942C77.0667 54.8278 77.0667 54.2048 77.4331 53.8384L79.8883 51.3465C82.1603 49.0746 85.8248 49.0746 88.0967 51.3465L92.8605 56.1103C95.0959 58.3456 95.0959 62.0101 92.8605 64.282" fill="url(#paint2_linear_618_6)"/>
<path d="M68.1987 89.017L68.338 89.1604L68.3403 89.1582L68.1987 89.017ZM53.1377 89.2002L52.9377 89.1951V89.2002H53.1377ZM53.3576 80.5155L53.5575 80.5205L53.5575 80.5197L53.3576 80.5155ZM55.2997 75.9716L55.4412 76.113L55.4412 76.113L55.2997 75.9716ZM72.7792 58.4922L72.6378 58.3508L72.6378 58.3508L72.7792 58.4922ZM73.8786 58.4922L73.7372 58.6336L73.7376 58.634L73.8786 58.4922ZM79.9982 64.5752L80.1397 64.4337L80.1392 64.4333L79.9982 64.5752ZM83.3696 61.1306L83.2096 61.2506L83.2155 61.2585L83.2221 61.2657L83.3696 61.1306ZM77.4331 55.1942L77.2917 55.3356L77.2921 55.3361L77.4331 55.1942ZM77.4331 53.8384L77.5745 53.9798L77.5756 53.9787L77.4331 53.8384ZM79.8883 51.3465L79.7469 51.2051L79.7458 51.2062L79.8883 51.3465ZM88.0967 51.3465L87.9553 51.488L88.0967 51.3465ZM92.8605 56.1103L93.002 55.9689L93.002 55.9689L92.8605 56.1103ZM92.7189 64.1408L68.057 88.8758L68.3403 89.1582L93.0022 64.4232L92.7189 64.1408ZM68.0593 88.8735C66.8131 90.0841 65.177 90.7591 63.4715 90.7591V91.1591C65.2839 91.1591 67.0191 90.4416 68.338 89.1604L68.0593 88.8735ZM63.4715 90.7591H54.86V91.1591H63.4715V90.7591ZM54.86 90.7591C54.4364 90.7591 54.0476 90.5968 53.7555 90.3047L53.4727 90.5875C53.8402 90.955 54.3309 91.1591 54.86 91.1591V90.7591ZM53.7555 90.3047C53.4707 90.0199 53.3377 89.6352 53.3377 89.2002H52.9377C52.9377 89.7179 53.0978 90.2127 53.4727 90.5875L53.7555 90.3047ZM53.3376 89.2053L53.5575 80.5205L53.1576 80.5104L52.9378 89.1951L53.3376 89.2053ZM53.5575 80.5197C53.5931 78.8494 54.268 77.2861 55.4412 76.113L55.1583 75.8301C53.9129 77.0756 53.1954 78.7369 53.1576 80.5112L53.5575 80.5197ZM55.4412 76.113L72.9207 58.6336L72.6378 58.3508L55.1583 75.8301L55.4412 76.113ZM72.9207 58.6336C73.1357 58.4186 73.5221 58.4186 73.7372 58.6336L74.02 58.3508C73.6487 57.9795 73.0091 57.9795 72.6378 58.3508L72.9207 58.6336ZM73.7376 58.634L79.8573 64.717L80.1392 64.4333L74.0196 58.3504L73.7376 58.634ZM79.8568 64.7166C80.297 65.1568 80.934 65.4348 81.6106 65.4348V65.0348C81.0413 65.0348 80.5057 64.7998 80.1397 64.4337L79.8568 64.7166ZM81.6106 65.4348C83.0789 65.4348 84.2292 64.2439 84.2292 62.8162H83.8292C83.8292 64.027 82.854 65.0348 81.6106 65.0348V65.4348ZM84.2292 62.8162C84.2292 62.1031 83.9515 61.4694 83.517 60.9954L83.2221 61.2657C83.5938 61.6712 83.8292 62.2101 83.8292 62.8162H84.2292ZM83.5296 61.0106C83.5131 60.9886 83.4715 60.9453 83.4287 60.9009C83.3792 60.8497 83.3104 60.7794 83.2254 60.693C83.0551 60.5203 82.8182 60.2818 82.5372 60C81.9753 59.4364 81.2365 58.6987 80.5013 57.9658C79.7661 57.2328 79.0343 56.5045 78.4863 55.9594C78.2123 55.6868 77.9842 55.46 77.8247 55.3014C77.7449 55.2221 77.6823 55.1599 77.6396 55.1174C77.6182 55.0962 77.6018 55.0799 77.5908 55.069C77.5853 55.0635 77.5811 55.0593 77.5783 55.0565C77.5769 55.0551 77.5759 55.0541 77.5752 55.0534C77.5748 55.053 77.5745 55.0528 77.5744 55.0526C77.5743 55.0525 77.5742 55.0524 77.5742 55.0524C77.5741 55.0524 77.5741 55.0523 77.4331 55.1942C77.2921 55.3361 77.2922 55.3361 77.2922 55.3361C77.2923 55.3362 77.2923 55.3362 77.2924 55.3363C77.2926 55.3365 77.2929 55.3368 77.2932 55.3371C77.2939 55.3378 77.295 55.3389 77.2964 55.3403C77.2992 55.343 77.3033 55.3472 77.3089 55.3527C77.3199 55.3636 77.3362 55.3799 77.3576 55.4011C77.4003 55.4435 77.4629 55.5058 77.5427 55.5851C77.7022 55.7437 77.9302 55.9704 78.2042 56.2429C78.7521 56.788 79.4838 57.5163 80.2189 58.2491C80.9541 58.9819 81.6925 59.7192 82.254 60.2824C82.5347 60.564 82.771 60.8019 82.9405 60.9738C83.0252 61.0598 83.0929 61.129 83.1409 61.1787C83.1954 61.2352 83.2123 61.2542 83.2096 61.2506L83.5296 61.0106ZM77.5745 55.0528C77.2862 54.7644 77.2862 54.2681 77.5745 53.9798L77.2917 53.6969C76.8471 54.1415 76.8471 54.8911 77.2917 55.3356L77.5745 55.0528ZM77.5756 53.9787L80.0308 51.4869L79.7458 51.2062L77.2907 53.698L77.5756 53.9787ZM80.0297 51.488C82.2236 49.2941 85.7614 49.2941 87.9553 51.488L88.2381 51.2051C85.8881 48.8551 82.097 48.8551 79.7469 51.2051L80.0297 51.488ZM87.9553 51.488L92.7191 56.2517L93.002 55.9689L88.2381 51.2051L87.9553 51.488ZM92.7191 56.2517C94.8757 58.4083 94.8773 61.947 92.718 64.1417L93.0031 64.4223C95.3144 62.0731 95.316 58.2829 93.002 55.9689L92.7191 56.2517Z" fill="url(#paint3_linear_618_6)" fill-opacity="0.5" mask="url(#path-5-inside-2_618_6)"/>
</g>
<defs>
<filter id="filter0_f_618_6" x="6.05334" y="8.56873" width="93.3364" height="92.1102" filterUnits="userSpaceOnUse" color-interpolation-filters="sRGB">
<feFlood flood-opacity="0" result="BackgroundImageFix"/>
<feBlend mode="normal" in="SourceGraphic" in2="BackgroundImageFix" result="shape"/>
<feGaussianBlur stdDeviation="9" result="effect1_foregroundBlur_618_6"/>
</filter>
<filter id="filter1_b_618_6" x="10.2559" y="9.56055" width="123.365" height="123.365" filterUnits="userSpaceOnUse" color-interpolation-filters="sRGB">
<feFlood flood-opacity="0" result="BackgroundImageFix"/>
<feGaussianBlur in="BackgroundImage" stdDeviation="12"/>
<feComposite in2="SourceAlpha" operator="in" result="effect1_backgroundBlur_618_6"/>
<feBlend mode="normal" in="SourceGraphic" in2="effect1_backgroundBlur_618_6" result="shape"/>
</filter>
<filter id="filter2_bd_618_6" x="38.1377" y="34.6426" width="71.3993" height="71.3165" filterUnits="userSpaceOnUse" color-interpolation-filters="sRGB">
<feFlood flood-opacity="0" result="BackgroundImageFix"/>
<feGaussianBlur in="BackgroundImage" stdDeviation="7.5"/>
<feComposite in2="SourceAlpha" operator="in" result="effect1_backgroundBlur_618_6"/>
<feColorMatrix in="SourceAlpha" type="matrix" values="0 0 0 0 0 0 0 0 0 0 0 0 0 0 0 0 0 0 127 0" result="hardAlpha"/>
<feOffset dx="5" dy="5"/>
<feGaussianBlur stdDeviation="5"/>
<feColorMatrix type="matrix" values="0 0 0 0 0.454902 0 0 0 0 0.870588 0 0 0 0 0.376471 0 0 0 0.5 0"/>
<feBlend mode="normal" in2="effect1_backgroundBlur_618_6" result="effect2_dropShadow_618_6"/>
<feBlend mode="normal" in="SourceGraphic" in2="effect2_dropShadow_618_6" result="shape"/>
</filter>
<linearGradient id="paint0_linear_618_6" x1="76.1956" y1="13" x2="44.6324" y2="79.0803" gradientUnits="userSpaceOnUse">
<stop stop-color="#9BF763"/>
<stop offset="1" stop-color="#26AB5B"/>
</linearGradient>
<linearGradient id="paint1_linear_618_6" x1="46.9343" y1="43.1076" x2="93.7331" y2="101.069" gradientUnits="userSpaceOnUse">
<stop stop-color="white" stop-opacity="0.25"/>
<stop offset="1" stop-color="white" stop-opacity="0"/>
</linearGradient>
<linearGradient id="paint2_linear_618_6" x1="91.6018" y1="57.1035" x2="45.4871" y2="58.6101" gradientUnits="userSpaceOnUse">
<stop stop-color="white"/>
<stop offset="1" stop-color="white" stop-opacity="0.2"/>
</linearGradient>
<linearGradient id="paint3_linear_618_6" x1="57.5973" y1="63.5023" x2="92.7511" y2="63.6967" gradientUnits="userSpaceOnUse">
<stop stop-color="white"/>
<stop offset="1" stop-color="white" stop-opacity="0"/>
</linearGradient>
</defs>
</svg>
