<svg width="543" height="459" viewBox="0 0 543 459" fill="none" xmlns="http://www.w3.org/2000/svg">
<g clip-path="url(#clip0_106_3)">
<path d="M266.81 50.7636C258.173 50.149 249.172 51.9627 240.806 57.0717L48.6157 174.183C13.8696 195.328 23.9803 248.402 64.1088 255.19L149.09 266.22L266.81 50.7636Z" fill="url(#paint0_linear_106_3)"/>
<path d="M313.142 318.7L307.769 93.7031C307.545 83.9035 304.204 75.3503 299.019 68.4168L181.375 283.851L236.594 349.381C264.075 379.448 314.137 359.362 313.142 318.7Z" fill="url(#paint1_linear_106_3)"/>
</g>
<g filter="url(#filter0_b_106_3)">
<path d="M319.178 73.1284C332.898 57.3517 358.551 62.3434 365.354 82.1135L444.959 313.446C451.762 333.216 434.613 352.937 414.09 348.943L173.947 302.217C153.425 298.224 144.921 273.511 158.64 257.734L319.178 73.1284Z" fill="url(#paint2_linear_106_3)"/>
<path d="M321.91 75.5048C333.801 61.8316 356.034 66.1577 361.93 83.2918L441.535 314.624C447.431 331.758 432.568 348.85 414.781 345.389L174.639 298.662C156.853 295.201 149.483 273.784 161.373 260.111L321.91 75.5048Z" stroke="url(#paint3_linear_106_3)" stroke-opacity="0.5" stroke-width="7.24269"/>
</g>
<line x1="249.571" y1="210.099" x2="354.713" y2="231.346" stroke="url(#paint4_linear_106_3)" stroke-width="18.1067" stroke-linecap="round"/>
<line x1="280.941" y1="214.81" x2="334.923" y2="226.7" stroke="url(#paint5_linear_106_3)" stroke-width="18.1067" stroke-linecap="round"/>
<defs>
<filter id="filter0_b_106_3" x="84.9558" y="-3.21362" width="428.513" height="419.671" filterUnits="userSpaceOnUse" color-interpolation-filters="sRGB">
<feFlood flood-opacity="0" result="BackgroundImageFix"/>
<feGaussianBlur in="BackgroundImage" stdDeviation="33.4974"/>
<feComposite in2="SourceAlpha" operator="in" result="effect1_backgroundBlur_106_3"/>
<feBlend mode="normal" in="SourceGraphic" in2="effect1_backgroundBlur_106_3" result="shape"/>
</filter>
<linearGradient id="paint0_linear_106_3" x1="133.239" y1="87.0658" x2="182.922" y2="256.287" gradientUnits="userSpaceOnUse">
<stop stop-color="#FFDA55"/>
<stop offset="1" stop-color="#FF008A"/>
</linearGradient>
<linearGradient id="paint1_linear_106_3" x1="217.09" y1="92.4706" x2="295.047" y2="357.993" gradientUnits="userSpaceOnUse">
<stop stop-color="#FFDA55"/>
<stop offset="1" stop-color="#FF008A"/>
</linearGradient>
<linearGradient id="paint2_linear_106_3" x1="350.047" y1="37.6308" x2="348.976" y2="364.169" gradientUnits="userSpaceOnUse">
<stop stop-color="white" stop-opacity="0.49"/>
<stop offset="0.0001" stop-color="white" stop-opacity="0.29"/>
<stop offset="1" stop-color="white" stop-opacity="0"/>
</linearGradient>
<linearGradient id="paint3_linear_106_3" x1="350.047" y1="37.6308" x2="338.094" y2="348.546" gradientUnits="userSpaceOnUse">
<stop stop-color="#FFFBFB"/>
<stop offset="1" stop-color="#FFFDFD" stop-opacity="0"/>
</linearGradient>
<linearGradient id="paint4_linear_106_3" x1="225.211" y1="214.413" x2="378.661" y2="245.422" gradientUnits="userSpaceOnUse">
<stop stop-color="white" stop-opacity="0.74"/>
<stop offset="1" stop-color="white" stop-opacity="0"/>
</linearGradient>
<linearGradient id="paint5_linear_106_3" x1="262.167" y1="219.945" x2="351.654" y2="239.656" gradientUnits="userSpaceOnUse">
<stop stop-color="white" stop-opacity="0.74"/>
<stop offset="1" stop-color="white" stop-opacity="0"/>
</linearGradient>
<clipPath id="clip0_106_3">
<rect width="305.534" height="305.534" fill="white" transform="translate(0.494141 126.052) rotate(-16.362)"/>
</clipPath>
</defs>
</svg>
