<svg width="1066" height="1066" viewBox="0 0 1066 1066" fill="none" xmlns="http://www.w3.org/2000/svg">
<g clip-path="url(#clip0_102_2)">
<path d="M101.483 732.486C45.5323 701.193 44.6953 611.639 92.4017 586.53L431.161 424.995C487.206 392.64 578.072 392.64 634.116 424.995L970.364 584.856C1022.26 610.802 1019.84 700.131 963.794 732.486L634.116 922.811C578.072 955.165 487.206 955.165 431.161 922.811L101.483 732.486Z" fill="#FF536C"/>
<g filter="url(#filter0_d_102_2)">
<rect x="4.34902" width="609.998" height="609.998" rx="114.662" transform="matrix(0.866043 -0.49997 0.866043 0.49997 0.582582 640.925)" fill="url(#paint0_linear_102_2)" stroke="url(#paint1_linear_102_2)" stroke-width="5.02171"/>
</g>
<g filter="url(#filter1_d_102_2)">
<path d="M124.877 531.759L373.61 388.167C453.674 341.946 583.482 341.946 663.546 388.167L912.278 531.759L576.565 725.566C544.54 744.054 492.616 744.054 460.591 725.565L124.877 531.759Z" fill="#FF2228"/>
</g>
<g filter="url(#filter2_b_102_2)">
<path d="M101.812 518.226C45.8614 486.933 45.0244 397.379 92.7308 372.271L431.49 210.735C487.535 178.381 578.401 178.381 634.445 210.735L970.693 370.597C1022.58 396.542 1020.17 485.872 964.123 518.226L634.445 708.551C578.401 740.905 487.535 740.905 431.49 708.551L101.812 518.226Z" fill="white" fill-opacity="0.5"/>
</g>
<g filter="url(#filter3_b_102_2)">
<rect x="4.34902" width="609.998" height="609.998" rx="114.662" transform="matrix(0.866043 -0.49997 0.866043 0.49997 0.582582 427.665)" fill="white" fill-opacity="0.5" stroke="url(#paint2_linear_102_2)" stroke-width="5.02171"/>
</g>
<g filter="url(#filter4_i_102_2)">
<mask id="path-6-inside-1_102_2" fill="white">
<path d="M749.211 405.049C745.867 407.23 741.592 408.97 736.615 410.027L574.081 443.819C564.693 445.748 554.626 444.759 547.602 441.199L413.325 373.136C402.31 367.553 401.949 357.427 412.517 350.533C423.086 343.639 440.603 342.575 451.618 348.158L574.561 410.476L721.925 379.825C736.654 376.786 751.88 381.041 755.939 389.373C758.592 394.89 755.721 400.803 749.211 405.049"/>
</mask>
<path d="M749.211 405.049C745.867 407.23 741.592 408.97 736.615 410.027L574.081 443.819C564.693 445.748 554.626 444.759 547.602 441.199L413.325 373.136C402.31 367.553 401.949 357.427 412.517 350.533C423.086 343.639 440.603 342.575 451.618 348.158L574.561 410.476L721.925 379.825C736.654 376.786 751.88 381.041 755.939 389.373C758.592 394.89 755.721 400.803 749.211 405.049" fill="#FF788D"/>
<path d="M736.615 410.027L736.848 410.473L736.853 410.472L736.615 410.027ZM574.081 443.819L574.311 444.266L574.314 444.265L574.081 443.819ZM574.561 410.476L574 410.842L574.343 411.016L574.794 410.922L574.561 410.476ZM721.925 379.825L721.694 379.379L721.692 379.379L721.925 379.825ZM755.939 389.373L756.729 389.219L756.729 389.217L755.939 389.373ZM748.614 404.746C745.365 406.865 741.214 408.555 736.376 409.582L736.853 410.472C741.971 409.385 746.368 407.595 749.808 405.352L748.614 404.746ZM736.382 409.581L573.848 443.373L574.314 444.265L736.848 410.473L736.382 409.581ZM573.851 443.373C564.735 445.246 554.971 444.284 548.163 440.833L547.042 441.565C554.282 445.235 564.651 446.251 574.311 444.266L573.851 443.373ZM548.163 440.833L413.886 372.771L412.764 373.502L547.042 441.565L548.163 440.833ZM413.886 372.771C403.213 367.361 402.844 357.535 413.115 350.836L411.92 350.23C401.053 357.319 401.408 367.746 412.764 373.502L413.886 372.771ZM413.115 350.836C423.385 344.136 440.384 343.115 451.057 348.524L452.178 347.793C440.822 342.036 422.787 343.142 411.92 350.23L413.115 350.836ZM451.057 348.524L574 410.842L575.122 410.11L452.178 347.793L451.057 348.524ZM574.794 410.922L722.158 380.271L721.692 379.379L574.328 410.03L574.794 410.922ZM722.156 380.272C736.456 377.321 751.215 381.453 755.15 389.528L756.729 389.217C752.544 380.63 736.852 376.251 721.694 379.379L722.156 380.272ZM755.149 389.526C757.723 394.879 754.939 400.62 748.614 404.746L749.808 405.352C756.502 400.985 759.461 394.9 756.729 389.219L755.149 389.526Z" fill="url(#paint3_linear_102_2)" mask="url(#path-6-inside-1_102_2)"/>
</g>
</g>
<defs>
<filter id="filter0_d_102_2" x="-74.4685" y="365.577" width="1214.2" height="847.65" filterUnits="userSpaceOnUse" color-interpolation-filters="sRGB">
<feFlood flood-opacity="0" result="BackgroundImageFix"/>
<feColorMatrix in="SourceAlpha" type="matrix" values="0 0 0 0 0 0 0 0 0 0 0 0 0 0 0 0 0 0 127 0" result="hardAlpha"/>
<feOffset dy="167.39"/>
<feGaussianBlur stdDeviation="66.9562"/>
<feComposite in2="hardAlpha" operator="out"/>
<feColorMatrix type="matrix" values="0 0 0 0 1 0 0 0 0 0.343982 0 0 0 0 0.448724 0 0 0 0.5 0"/>
<feBlend mode="normal" in2="BackgroundImageFix" result="effect1_dropShadow_102_2"/>
<feBlend mode="normal" in="SourceGraphic" in2="effect1_dropShadow_102_2" result="shape"/>
</filter>
<filter id="filter1_d_102_2" x="51.2257" y="336.762" width="934.704" height="533.234" filterUnits="userSpaceOnUse" color-interpolation-filters="sRGB">
<feFlood flood-opacity="0" result="BackgroundImageFix"/>
<feColorMatrix in="SourceAlpha" type="matrix" values="0 0 0 0 0 0 0 0 0 0 0 0 0 0 0 0 0 0 127 0" result="hardAlpha"/>
<feOffset dy="56.9127"/>
<feGaussianBlur stdDeviation="36.8259"/>
<feComposite in2="hardAlpha" operator="out"/>
<feColorMatrix type="matrix" values="0 0 0 0 1 0 0 0 0 0.188235 0 0 0 0 0.219608 0 0 0 1 0"/>
<feBlend mode="normal" in2="BackgroundImageFix" result="effect1_dropShadow_102_2"/>
<feBlend mode="normal" in="SourceGraphic" in2="effect1_dropShadow_102_2" result="shape"/>
</filter>
<filter id="filter2_b_102_2" x="-8.64513" y="119.513" width="1083.56" height="680.26" filterUnits="userSpaceOnUse" color-interpolation-filters="sRGB">
<feFlood flood-opacity="0" result="BackgroundImageFix"/>
<feGaussianBlur in="BackgroundImage" stdDeviation="33.4781"/>
<feComposite in2="SourceAlpha" operator="in" result="effect1_backgroundBlur_102_2"/>
<feBlend mode="normal" in="SourceGraphic" in2="effect1_backgroundBlur_102_2" result="shape"/>
</filter>
<filter id="filter3_b_102_2" x="-7.51232" y="85.361" width="1080.29" height="680.26" filterUnits="userSpaceOnUse" color-interpolation-filters="sRGB">
<feFlood flood-opacity="0" result="BackgroundImageFix"/>
<feGaussianBlur in="BackgroundImage" stdDeviation="33.4781"/>
<feComposite in2="SourceAlpha" operator="in" result="effect1_backgroundBlur_102_2"/>
<feBlend mode="normal" in="SourceGraphic" in2="effect1_backgroundBlur_102_2" result="shape"/>
</filter>
<filter id="filter4_i_102_2" x="404.821" y="344.578" width="352.101" height="103.998" filterUnits="userSpaceOnUse" color-interpolation-filters="sRGB">
<feFlood flood-opacity="0" result="BackgroundImageFix"/>
<feBlend mode="normal" in="SourceGraphic" in2="BackgroundImageFix" result="shape"/>
<feColorMatrix in="SourceAlpha" type="matrix" values="0 0 0 0 0 0 0 0 0 0 0 0 0 0 0 0 0 0 127 0" result="hardAlpha"/>
<feOffset dy="8.80474"/>
<feGaussianBlur stdDeviation="1.89372"/>
<feComposite in2="hardAlpha" operator="arithmetic" k2="-1" k3="1"/>
<feColorMatrix type="matrix" values="0 0 0 0 1 0 0 0 0 1 0 0 0 0 1 0 0 0 1 0"/>
<feBlend mode="normal" in2="shape" result="effect1_innerShadow_102_2"/>
</filter>
<linearGradient id="paint0_linear_102_2" x1="115.335" y1="514.764" x2="96.4951" y2="245.671" gradientUnits="userSpaceOnUse">
<stop stop-color="#FF6C7C"/>
<stop offset="1" stop-color="#FF7A90"/>
</linearGradient>
<linearGradient id="paint1_linear_102_2" x1="53.2895" y1="250.163" x2="323.295" y2="503.4" gradientUnits="userSpaceOnUse">
<stop stop-color="white" stop-opacity="0.43"/>
<stop offset="0.846595" stop-color="white" stop-opacity="0.44"/>
<stop offset="1" stop-color="white" stop-opacity="0"/>
</linearGradient>
<linearGradient id="paint2_linear_102_2" x1="74.2297" y1="269.429" x2="354.993" y2="535.114" gradientUnits="userSpaceOnUse">
<stop stop-color="white" stop-opacity="0.09"/>
<stop offset="0.846595" stop-color="white" stop-opacity="0.79"/>
<stop offset="1" stop-color="white" stop-opacity="0.17"/>
</linearGradient>
<linearGradient id="paint3_linear_102_2" x1="442.972" y1="362.606" x2="688.499" y2="293.803" gradientUnits="userSpaceOnUse">
<stop stop-color="white" stop-opacity="0.25"/>
<stop offset="1" stop-color="white" stop-opacity="0"/>
</linearGradient>
<clipPath id="clip0_102_2">
<rect width="1065.27" height="1065.27" fill="white"/>
</clipPath>
</defs>
</svg>
