<svg width="120" height="120" viewBox="0 0 120 120" fill="none" xmlns="http://www.w3.org/2000/svg">
<path d="M75.3535 22.4998L48.0854 15.1933C38.1946 12.5431 30.884 16.7913 28.2251 26.7147L19.2195 60.324C16.5169 70.41 20.7588 77.6143 30.6496 80.2645L57.9177 87.571C67.968 90.2639 75.081 86.1022 77.7836 76.0162L86.7891 42.4069C89.4481 32.4835 85.4038 25.1927 75.3535 22.4998Z" fill="url(#paint0_linear_618_6)"/>
<g opacity="0.5" filter="url(#filter0_f_618_6)">
<path d="M45.2666 50.4442C39.6389 49.8455 35.3694 45.0977 35.3694 39.4382V39.4382C35.3694 33.7787 39.6389 29.0309 45.2667 28.4322L53.3595 27.5713C60.4102 26.8213 66.5558 32.3478 66.5558 39.4382V39.4382C66.5558 46.5286 60.4101 52.0552 53.3595 51.3051L45.2666 50.4442Z" fill="#0062FF"/>
</g>
<g filter="url(#filter1_b_618_6)">
<path d="M96.6522 56.7963C96.6522 43.0794 88.3367 35 74.2646 35H37.3912C23.3155 35 15 43.0794 15 56.7963V86.6719C15 100.389 23.3155 108.5 37.3912 108.5H74.2791C88.3512 108.5 96.6667 100.389 96.6667 86.6719C96.6667 72.955 96.6522 58.3117 96.6522 56.7963Z" fill="#3EA0FE" fill-opacity="0.35"/>
<path d="M97.1522 56.7963C97.1522 49.8358 95.04 44.2453 91.0841 40.3959C87.13 36.5484 81.395 34.5 74.2646 34.5H37.3912C30.259 34.5 24.5231 36.5484 20.5685 40.3959C16.6121 44.2453 14.5 49.8358 14.5 56.7963V86.6719C14.5 93.6323 16.6121 99.2306 20.5682 103.088C24.5226 106.943 30.2585 109 37.3912 109H74.2791C81.41 109 87.145 106.943 91.099 103.088C95.0546 99.2306 97.1667 93.6323 97.1667 86.6719C97.1667 79.8133 97.163 72.7231 97.1594 67.1582C97.1576 64.375 97.1558 61.9735 97.1544 60.1732C97.1531 58.3737 97.1522 57.1749 97.1522 56.7963Z" stroke="url(#paint1_linear_618_6)" stroke-linecap="round" stroke-linejoin="round"/>
</g>
<g filter="url(#filter2_b_618_6)">
<path d="M67.1971 73.5825C68.2993 78.5762 72.6944 82.0896 77.7123 81.9983H100.219C102.306 81.9983 104 80.2758 104 78.1468V64.8561C103.996 62.7316 102.306 61.0046 100.219 61H77.3091C71.6012 61.0183 66.9911 65.7379 67 71.554C67 72.2347 67.0672 72.9155 67.1971 73.5825Z" fill="#3EA0FE" fill-opacity="0.35"/>
<path d="M66.7064 73.6781L66.7062 73.6781L66.7089 73.6903C67.8607 78.9089 72.4568 82.5919 77.7169 82.4983H100.219C102.591 82.4983 104.5 80.5435 104.5 78.1468V64.8561V64.855C104.495 62.4648 102.592 60.5052 100.22 60.5H100.219L77.3091 60.5L77.3075 60.5C71.3152 60.5192 66.4908 65.4715 66.5 71.5543C66.5 72.2678 66.5705 72.9804 66.7064 73.6781Z" stroke="url(#paint2_linear_618_6)" stroke-linecap="round" stroke-linejoin="round"/>
</g>
<g filter="url(#filter3_bd_618_6)">
<circle cx="77.5" cy="71.5" r="4.5" fill="url(#paint3_linear_618_6)"/>
<circle cx="77.5" cy="71.5" r="4.4" stroke="url(#paint4_linear_618_6)" stroke-opacity="0.5" stroke-width="0.2"/>
</g>
<g filter="url(#filter4_bd_618_6)">
<path d="M57.4121 56.9241H34.3821C32.658 56.9171 31.2643 55.5475 31.2715 53.8665C31.2788 52.1926 32.6689 50.8372 34.3821 50.8301H57.4266C59.1507 50.823 60.559 52.182 60.5663 53.863C60.5735 55.5475 59.1797 56.9171 57.4557 56.9241H57.4266H57.4121Z" fill="url(#paint5_linear_618_6)"/>
<path d="M57.4266 50.9301L57.427 50.9301C59.0984 50.9232 60.4592 52.2401 60.4663 53.8634C60.4733 55.4903 59.1265 56.8172 57.4554 56.8241C57.4553 56.8241 57.4553 56.8241 57.4553 56.8241L57.4266 56.8241H57.4121L34.3825 56.8241C32.7112 56.8173 31.3645 55.4903 31.3715 53.8669C31.3785 52.2503 32.7218 50.9371 34.3823 50.9301L57.4266 50.9301Z" stroke="url(#paint6_linear_618_6)" stroke-opacity="0.5" stroke-width="0.2"/>
</g>
<defs>
<filter id="filter0_f_618_6" x="15.3694" y="7.50305" width="71.1864" height="63.8704" filterUnits="userSpaceOnUse" color-interpolation-filters="sRGB">
<feFlood flood-opacity="0" result="BackgroundImageFix"/>
<feBlend mode="normal" in="SourceGraphic" in2="BackgroundImageFix" result="shape"/>
<feGaussianBlur stdDeviation="10" result="effect1_foregroundBlur_618_6"/>
</filter>
<filter id="filter1_b_618_6" x="-10" y="10" width="131.667" height="123.5" filterUnits="userSpaceOnUse" color-interpolation-filters="sRGB">
<feFlood flood-opacity="0" result="BackgroundImageFix"/>
<feGaussianBlur in="BackgroundImage" stdDeviation="12"/>
<feComposite in2="SourceAlpha" operator="in" result="effect1_backgroundBlur_618_6"/>
<feBlend mode="normal" in="SourceGraphic" in2="effect1_backgroundBlur_618_6" result="shape"/>
</filter>
<filter id="filter2_b_618_6" x="42" y="36" width="87" height="71" filterUnits="userSpaceOnUse" color-interpolation-filters="sRGB">
<feFlood flood-opacity="0" result="BackgroundImageFix"/>
<feGaussianBlur in="BackgroundImage" stdDeviation="12"/>
<feComposite in2="SourceAlpha" operator="in" result="effect1_backgroundBlur_618_6"/>
<feBlend mode="normal" in="SourceGraphic" in2="effect1_backgroundBlur_618_6" result="shape"/>
</filter>
<filter id="filter3_bd_618_6" x="58" y="52" width="39" height="39" filterUnits="userSpaceOnUse" color-interpolation-filters="sRGB">
<feFlood flood-opacity="0" result="BackgroundImageFix"/>
<feGaussianBlur in="BackgroundImage" stdDeviation="7.5"/>
<feComposite in2="SourceAlpha" operator="in" result="effect1_backgroundBlur_618_6"/>
<feColorMatrix in="SourceAlpha" type="matrix" values="0 0 0 0 0 0 0 0 0 0 0 0 0 0 0 0 0 0 127 0" result="hardAlpha"/>
<feOffset dx="5" dy="5"/>
<feGaussianBlur stdDeviation="5"/>
<feColorMatrix type="matrix" values="0 0 0 0 0.15375 0 0 0 0 0.522433 0 0 0 0 0.9 0 0 0 0.5 0"/>
<feBlend mode="normal" in2="effect1_backgroundBlur_618_6" result="effect2_dropShadow_618_6"/>
<feBlend mode="normal" in="SourceGraphic" in2="effect2_dropShadow_618_6" result="shape"/>
</filter>
<filter id="filter4_bd_618_6" x="16.2715" y="35.8301" width="59.2948" height="36.0941" filterUnits="userSpaceOnUse" color-interpolation-filters="sRGB">
<feFlood flood-opacity="0" result="BackgroundImageFix"/>
<feGaussianBlur in="BackgroundImage" stdDeviation="7.5"/>
<feComposite in2="SourceAlpha" operator="in" result="effect1_backgroundBlur_618_6"/>
<feColorMatrix in="SourceAlpha" type="matrix" values="0 0 0 0 0 0 0 0 0 0 0 0 0 0 0 0 0 0 127 0" result="hardAlpha"/>
<feOffset dx="5" dy="5"/>
<feGaussianBlur stdDeviation="5"/>
<feColorMatrix type="matrix" values="0 0 0 0 0.15375 0 0 0 0 0.522433 0 0 0 0 0.9 0 0 0 0.5 0"/>
<feBlend mode="normal" in2="effect1_backgroundBlur_618_6" result="effect2_dropShadow_618_6"/>
<feBlend mode="normal" in="SourceGraphic" in2="effect2_dropShadow_618_6" result="shape"/>
</filter>
<linearGradient id="paint0_linear_618_6" x1="86.811" y1="25.5698" x2="10.4885" y2="48.6915" gradientUnits="userSpaceOnUse">
<stop stop-color="#39AFFD"/>
<stop offset="1" stop-color="#477FFF"/>
</linearGradient>
<linearGradient id="paint1_linear_618_6" x1="28" y1="43.5628" x2="87.6371" y2="111.064" gradientUnits="userSpaceOnUse">
<stop stop-color="white" stop-opacity="0.25"/>
<stop offset="1" stop-color="white" stop-opacity="0"/>
</linearGradient>
<linearGradient id="paint2_linear_618_6" x1="72.8898" y1="63.4465" x2="87.4904" y2="89.6517" gradientUnits="userSpaceOnUse">
<stop stop-color="white" stop-opacity="0.25"/>
<stop offset="1" stop-color="white" stop-opacity="0"/>
</linearGradient>
<linearGradient id="paint3_linear_618_6" x1="81.3619" y1="68.6252" x2="71.3368" y2="68.9521" gradientUnits="userSpaceOnUse">
<stop stop-color="white"/>
<stop offset="1" stop-color="white" stop-opacity="0.2"/>
</linearGradient>
<linearGradient id="paint4_linear_618_6" x1="73.9695" y1="70.0191" x2="81.6117" y2="70.0613" gradientUnits="userSpaceOnUse">
<stop stop-color="white"/>
<stop offset="1" stop-color="white" stop-opacity="0"/>
</linearGradient>
<linearGradient id="paint5_linear_618_6" x1="58.4893" y1="51.9305" x2="26.6062" y2="56.9277" gradientUnits="userSpaceOnUse">
<stop stop-color="white"/>
<stop offset="1" stop-color="white" stop-opacity="0.2"/>
</linearGradient>
<linearGradient id="paint6_linear_618_6" x1="34.4272" y1="52.8743" x2="59.2858" y2="53.534" gradientUnits="userSpaceOnUse">
<stop stop-color="white"/>
<stop offset="1" stop-color="white" stop-opacity="0"/>
</linearGradient>
</defs>
</svg>
