<svg width="120" height="120" viewBox="0 0 120 120" fill="none" xmlns="http://www.w3.org/2000/svg">
<path d="M79 16C61.336 16 47 30.3392 47 48C47 65.6672 61.336 80 79 80C96.696 80 111 65.6672 111 48C111 30.3392 96.696 16 79 16V16Z" fill="#4096FE"/>
<g opacity="0.5" filter="url(#filter0_f_618_6)">
<path d="M79 33.0137C70.7275 33.0137 64.0137 39.729 64.0137 48C64.0137 56.2739 70.7275 62.9863 79 62.9863C87.2874 62.9863 93.9863 56.2739 93.9863 48C93.9863 39.729 87.2874 33.0137 79 33.0137V33.0137Z" fill="#0062FF"/>
</g>
<g filter="url(#filter1_b_618_6)">
<mask id="path-3-outside-1_618_6" maskUnits="userSpaceOnUse" x="7" y="21.002" width="84" height="84" fill="black">
<rect fill="white" x="7" y="21.002" width="84" height="84"/>
<path d="M48.8333 22.002C26.2933 22.002 8 40.2994 8 62.8353C8 85.3794 26.2933 103.669 48.8333 103.669C71.4142 103.669 89.6667 85.3794 89.6667 62.8353C89.6667 40.2994 71.4142 22.002 48.8333 22.002V22.002Z"/>
</mask>
<path d="M48.8333 22.002C26.2933 22.002 8 40.2994 8 62.8353C8 85.3794 26.2933 103.669 48.8333 103.669C71.4142 103.669 89.6667 85.3794 89.6667 62.8353C89.6667 40.2994 71.4142 22.002 48.8333 22.002V22.002Z" fill="#3EA0FE" fill-opacity="0.35"/>
<path d="M48.8333 21.002C48.2811 21.002 47.8333 21.4497 47.8333 22.002C47.8333 22.5542 48.2811 23.002 48.8333 23.002V21.002ZM48.8333 21.002C25.741 21.002 7 39.7471 7 62.8353H9C9 40.8516 26.8457 23.002 48.8333 23.002V21.002ZM7 62.8353C7 85.9317 25.7411 104.669 48.8333 104.669V102.669C26.8456 102.669 9 84.827 9 62.8353H7ZM48.8333 104.669C71.967 104.669 90.6667 85.9311 90.6667 62.8353H88.6667C88.6667 84.8277 70.8613 102.669 48.8333 102.669V104.669ZM90.6667 62.8353C90.6667 39.7478 71.9672 21.002 48.8333 21.002V23.002C70.8612 23.002 88.6667 40.8509 88.6667 62.8353H90.6667Z" fill="url(#paint0_linear_618_6)" mask="url(#path-3-outside-1_618_6)"/>
</g>
<g filter="url(#filter2_bd_618_6)">
<mask id="path-5-inside-2_618_6" fill="white">
<path fill-rule="evenodd" clip-rule="evenodd" d="M48.8336 43.7666C46.8736 43.7666 45.2402 45.404 45.2402 47.3599V65.4083C45.2402 67.3724 46.8736 68.9608 48.8336 68.9608C50.7936 68.9608 52.3861 67.3724 52.3861 65.4083V47.3599C52.3861 45.404 50.7936 43.7666 48.8336 43.7666ZM45.2803 78.3552C45.2803 80.3152 46.8728 81.9486 48.8736 81.9486C50.8336 81.9486 52.4261 80.3152 52.4261 78.3552C52.4261 76.3952 50.8336 74.8027 48.8328 74.8027C46.8728 74.8027 45.2803 76.3952 45.2803 78.3552Z"/>
</mask>
<path fill-rule="evenodd" clip-rule="evenodd" d="M48.8336 43.7666C46.8736 43.7666 45.2402 45.404 45.2402 47.3599V65.4083C45.2402 67.3724 46.8736 68.9608 48.8336 68.9608C50.7936 68.9608 52.3861 67.3724 52.3861 65.4083V47.3599C52.3861 45.404 50.7936 43.7666 48.8336 43.7666ZM45.2803 78.3552C45.2803 80.3152 46.8728 81.9486 48.8736 81.9486C50.8336 81.9486 52.4261 80.3152 52.4261 78.3552C52.4261 76.3952 50.8336 74.8027 48.8328 74.8027C46.8728 74.8027 45.2803 76.3952 45.2803 78.3552Z" fill="url(#paint1_linear_618_6)"/>
<path d="M45.6402 47.3599C45.6402 45.6246 47.0948 44.1666 48.8336 44.1666V43.3666C46.6524 43.3666 44.8402 45.1834 44.8402 47.3599H45.6402ZM45.6402 65.4083V47.3599H44.8402V65.4083H45.6402ZM48.8336 68.5608C47.0882 68.5608 45.6402 67.1452 45.6402 65.4083H44.8402C44.8402 67.5995 46.6589 69.3608 48.8336 69.3608V68.5608ZM51.9861 65.4083C51.9861 67.1511 50.5729 68.5608 48.8336 68.5608V69.3608C51.0142 69.3608 52.7861 67.5936 52.7861 65.4083H51.9861ZM51.9861 47.3599V65.4083H52.7861V47.3599H51.9861ZM48.8336 44.1666C50.5664 44.1666 51.9861 45.6187 51.9861 47.3599H52.7861C52.7861 45.1894 51.0207 43.3666 48.8336 43.3666V44.1666ZM48.8736 81.5486C47.0966 81.5486 45.6803 80.0973 45.6803 78.3552H44.8803C44.8803 80.5332 46.6489 82.3486 48.8736 82.3486V81.5486ZM52.0261 78.3552C52.0261 80.1003 50.6068 81.5486 48.8736 81.5486V82.3486C51.0604 82.3486 52.8261 80.5302 52.8261 78.3552H52.0261ZM48.8328 75.2027C50.6157 75.2027 52.0261 76.6191 52.0261 78.3552H52.8261C52.8261 76.1713 51.0515 74.4027 48.8328 74.4027V75.2027ZM45.6803 78.3552C45.6803 76.6162 47.0937 75.2027 48.8328 75.2027V74.4027C46.6519 74.4027 44.8803 76.1743 44.8803 78.3552H45.6803Z" fill="url(#paint2_linear_618_6)" mask="url(#path-5-inside-2_618_6)"/>
</g>
<defs>
<filter id="filter0_f_618_6" x="46.0137" y="15.0137" width="65.9727" height="65.9727" filterUnits="userSpaceOnUse" color-interpolation-filters="sRGB">
<feFlood flood-opacity="0" result="BackgroundImageFix"/>
<feBlend mode="normal" in="SourceGraphic" in2="BackgroundImageFix" result="shape"/>
<feGaussianBlur stdDeviation="9" result="effect1_foregroundBlur_618_6"/>
</filter>
<filter id="filter1_b_618_6" x="-17" y="-2.99805" width="131.667" height="131.667" filterUnits="userSpaceOnUse" color-interpolation-filters="sRGB">
<feFlood flood-opacity="0" result="BackgroundImageFix"/>
<feGaussianBlur in="BackgroundImage" stdDeviation="12"/>
<feComposite in2="SourceAlpha" operator="in" result="effect1_backgroundBlur_618_6"/>
<feBlend mode="normal" in="SourceGraphic" in2="effect1_backgroundBlur_618_6" result="shape"/>
</filter>
<filter id="filter2_bd_618_6" x="30.2402" y="28.7666" width="37.1859" height="68.182" filterUnits="userSpaceOnUse" color-interpolation-filters="sRGB">
<feFlood flood-opacity="0" result="BackgroundImageFix"/>
<feGaussianBlur in="BackgroundImage" stdDeviation="7.5"/>
<feComposite in2="SourceAlpha" operator="in" result="effect1_backgroundBlur_618_6"/>
<feColorMatrix in="SourceAlpha" type="matrix" values="0 0 0 0 0 0 0 0 0 0 0 0 0 0 0 0 0 0 127 0" result="hardAlpha"/>
<feOffset dx="5" dy="5"/>
<feGaussianBlur stdDeviation="5"/>
<feColorMatrix type="matrix" values="0 0 0 0 0.25098 0 0 0 0 0.588235 0 0 0 0 0.996078 0 0 0 1 0"/>
<feBlend mode="normal" in2="effect1_backgroundBlur_618_6" result="effect2_dropShadow_618_6"/>
<feBlend mode="normal" in="SourceGraphic" in2="effect2_dropShadow_618_6" result="shape"/>
</filter>
<linearGradient id="paint0_linear_618_6" x1="21" y1="31.5162" x2="73.0946" y2="96.0367" gradientUnits="userSpaceOnUse">
<stop stop-color="white" stop-opacity="0.25"/>
<stop offset="1" stop-color="white" stop-opacity="0"/>
</linearGradient>
<linearGradient id="paint1_linear_618_6" x1="48.834" y1="45.9203" x2="42.2208" y2="45.3982" gradientUnits="userSpaceOnUse">
<stop stop-color="white" stop-opacity="0.75"/>
<stop offset="1" stop-color="white" stop-opacity="0.2"/>
</linearGradient>
<linearGradient id="paint2_linear_618_6" x1="46.3841" y1="48.2149" x2="57.4007" y2="50.7827" gradientUnits="userSpaceOnUse">
<stop stop-color="white" stop-opacity="0.25"/>
<stop offset="1" stop-color="white" stop-opacity="0"/>
</linearGradient>
</defs>
</svg>
